<?xml version="1.0" encoding="utf-8"?>
<!-- Generator: Adobe Illustrator 16.0.0, SVG Export Plug-In . SVG Version: 6.00 Build 0)  -->
<!DOCTYPE svg PUBLIC "-//W3C//DTD SVG 1.1//EN" "http://www.w3.org/Graphics/SVG/1.1/DTD/svg11.dtd">
<svg version="1.1" id="Layer_1" xmlns="http://www.w3.org/2000/svg" xmlns:xlink="http://www.w3.org/1999/xlink" x="0px" y="0px"
	 width="127.907px" height="120px" viewBox="0 0 127.907 120" enable-background="new 0 0 127.907 120" xml:space="preserve">
<g>
	<path fill="none" stroke="#FFFFFF" stroke-width="4" stroke-linecap="round" stroke-linejoin="round" stroke-miterlimit="10" d="
		M22.493,108.051C-0.998,84.563-3.072,44.428,20.418,20.934c23.491-23.487,61.55-21.413,85.042,2.074
		c23.489,23.495,25.563,61.556,2.074,85.043c-11.235,11.233-30.25,11.233-41.483,0L43.235,85.234
		c-4.148-4.148-6.256-4.116-8.297-2.074c-2.043,2.046-2.074,6.223,2.074,10.371c4.083,4.087,4.083,10.436,0,14.52
		C32.929,112.134,26.579,112.134,22.493,108.051z"/>
	<path fill="none" stroke="#FFFFFF" stroke-width="4" stroke-linecap="round" stroke-linejoin="round" stroke-miterlimit="10" d="
		M92.035,44.47c-3.236,3.238-8.495,3.238-11.731,0c-3.243-3.24-3.243-8.497,0-11.734c3.236-3.242,8.495-3.242,11.731,0
		C95.274,35.973,95.274,41.23,92.035,44.47z"/>
	<path fill="none" stroke="#FFFFFF" stroke-width="4" stroke-linecap="round" stroke-linejoin="round" stroke-miterlimit="10" d="
		M96.192,68.892c-2.431-2.431-2.431-6.368,0-8.799c2.431-2.43,6.368-2.43,8.799,0c2.431,2.431,2.431,6.369,0,8.799
		C102.561,71.318,98.623,71.318,96.192,68.892z"/>
	<path fill="none" stroke="#FFFFFF" stroke-width="4" stroke-linecap="round" stroke-linejoin="round" stroke-miterlimit="10" d="
		M78.837,97.716c-4.051-4.047-4.051-10.618,0-14.67c4.043-4.047,10.618-4.047,14.665,0c4.052,4.052,4.052,10.623,0,14.67
		C89.455,101.765,82.88,101.765,78.837,97.716z"/>
	<path fill="none" stroke="#FFFFFF" stroke-width="4" stroke-linecap="round" stroke-linejoin="round" stroke-miterlimit="10" d="
		M59.472,27.187c3.239,3.236,3.242,8.49,0,11.731c-3.237,3.239-8.493,3.239-11.731,0c-3.242-3.241-3.242-8.495,0-11.731
		C50.981,23.944,56.231,23.944,59.472,27.187z"/>
</g>
</svg>
