<?xml version="1.0" encoding="utf-8"?>
<!-- Generator: Adobe Illustrator 16.0.0, SVG Export Plug-In . SVG Version: 6.00 Build 0)  -->
<!DOCTYPE svg PUBLIC "-//W3C//DTD SVG 1.1//EN" "http://www.w3.org/Graphics/SVG/1.1/DTD/svg11.dtd">
<svg version="1.1" id="Layer_1" xmlns="http://www.w3.org/2000/svg" xmlns:xlink="http://www.w3.org/1999/xlink" x="0px" y="0px"
	 width="127.907px" height="120px" viewBox="0 0 127.907 120" enable-background="new 0 0 127.907 120" xml:space="preserve">
<g>
	<path fill="none" stroke="#FFFFFF" stroke-width="4" stroke-miterlimit="10" d="M25.611,33.857v6.977l-13.27,3.515
		c-2.688,0.768-4.888,3.686-4.888,6.483v2.107h30"/>
	<path fill="none" stroke="#FFFFFF" stroke-width="4" stroke-miterlimit="10" d="M39.734,34.033v6.801l13.701,3.515
		c2.693,0.768,4.457,3.773,4.457,6.572v2.018H32.365"/>
	<ellipse fill="none" stroke="#FFFFFF" stroke-width="4" stroke-miterlimit="10" cx="32.892" cy="19.143" rx="15.263" ry="16.645"/>
	<path fill="none" stroke="#FFFFFF" stroke-width="4" stroke-linejoin="round" stroke-miterlimit="10" d="M47.996,16.229
		c-2.545,2.544-9.819,2.42-12.561-2.686c-5.088,5.088-13.357,5.088-17.47,2.184"/>
	<path fill="none" stroke="#FFFFFF" stroke-width="4" stroke-miterlimit="10" d="M90.172,33.817v7.017l-13.27,3.515
		c-2.687,0.768-4.888,3.686-4.888,6.483v2.107h29.999"/>
	<path fill="none" stroke="#FFFFFF" stroke-width="4" stroke-miterlimit="10" d="M104.295,34.015v6.819l13.701,3.515
		c2.693,0.768,4.457,3.773,4.457,6.572v2.018H96.926"/>
	<ellipse fill="none" stroke="#FFFFFF" stroke-width="4" stroke-miterlimit="10" cx="97.453" cy="19.143" rx="15.264" ry="16.645"/>
	<path fill="none" stroke="#FFFFFF" stroke-width="4" stroke-linejoin="round" stroke-miterlimit="10" d="M112.559,16.229
		c-2.546,2.544-9.819,2.42-12.563-2.686c-5.088,5.088-13.356,5.088-17.468,2.184"/>
	<path fill="none" stroke="#FFFFFF" stroke-width="4" stroke-miterlimit="10" d="M56.312,97.683v7.1l-12.917,3.689
		c-2.688,0.768-4.889,3.688-4.889,6.484v2.545h27.983"/>
	<path fill="none" stroke="#FFFFFF" stroke-width="4" stroke-miterlimit="10" d="M71.575,97.681v7.102l12.913,3.689
		c2.693,0.768,4.894,3.688,4.894,6.484v2.545H61.4"/>
	<path fill="none" stroke="#FFFFFF" stroke-width="4" stroke-miterlimit="10" d="M79.208,83.267c0,9.189-6.837,16.645-15.264,16.645
		c-8.432,0-15.264-7.455-15.264-16.645c0-9.191,6.832-16.645,15.264-16.645C72.371,66.622,79.208,74.075,79.208,83.267z"/>
	<path fill="none" stroke="#FFFFFF" stroke-width="4" stroke-linejoin="round" stroke-miterlimit="10" d="M78.97,80.21
		c-2.546,2.543-9.738,2.561-12.481-2.545c-5.088,5.088-13.356,5.088-17.471,2.184"/>
	
		<line fill="none" stroke="#FFFFFF" stroke-width="4" stroke-linecap="round" stroke-miterlimit="10" x1="23.243" y1="61.536" x2="35.962" y2="74.255"/>
	
		<line fill="none" stroke="#FFFFFF" stroke-width="4" stroke-linecap="round" stroke-miterlimit="10" x1="104.646" y1="61.536" x2="91.926" y2="74.255"/>
</g>
</svg>
