<?xml version="1.0" encoding="utf-8"?>
<!-- Generator: Adobe Illustrator 16.0.0, SVG Export Plug-In . SVG Version: 6.00 Build 0)  -->
<!DOCTYPE svg PUBLIC "-//W3C//DTD SVG 1.1//EN" "http://www.w3.org/Graphics/SVG/1.1/DTD/svg11.dtd">
<svg version="1.1" id="Layer_1" xmlns="http://www.w3.org/2000/svg" xmlns:xlink="http://www.w3.org/1999/xlink" x="0px" y="0px"
	 width="127.907px" height="120px" viewBox="0 0 127.907 120" enable-background="new 0 0 127.907 120" xml:space="preserve">
<g>
	
		<circle fill="none" stroke="#3366FF" stroke-width="4" stroke-linejoin="round" stroke-miterlimit="10" cx="46.463" cy="77.928" r="14.885"/>
	<path fill="none" stroke="#3366FF" stroke-width="4" stroke-linejoin="round" stroke-miterlimit="10" d="M106.005,25.828
		c0,4.116-3.336,7.444-7.441,7.444c-4.11,0-7.444-3.328-7.444-7.444c0-4.108,3.334-7.439,7.444-7.439
		C102.669,18.388,106.005,21.72,106.005,25.828z"/>
	<path fill="none" stroke="#3366FF" stroke-width="4" stroke-linejoin="round" stroke-miterlimit="10" d="M78.713,77.928
		c0-2.315-0.257-4.57-0.718-6.744l7.801-4.507l-9.923-17.191l-7.658,4.526c-3.333-3.017-6.514-5.351-11.476-6.761v-8.418H36.892
		v8.418c-4.963,1.41-8.501,3.75-11.834,6.761l-7.925-4.526L7.165,66.677l7.782,4.507c-0.462,2.174-0.725,4.429-0.725,6.744
		c0,2.317,0.247,4.568,0.709,6.744L7.124,89.18l9.922,17.192l8.013-4.525c3.333,3.013,6.871,5.349,11.833,6.764v9.012h19.847v-9.012
		c4.962-1.415,8.144-3.751,11.482-6.764l7.74,4.525L85.84,89.18l-7.82-4.508C78.479,82.496,78.713,80.245,78.713,77.928z"/>
	<path fill="none" stroke="#3366FF" stroke-width="4" stroke-linejoin="round" stroke-miterlimit="10" d="M115.927,25.828
		c0-1.383-0.178-2.726-0.483-4.016l4.936-2.848l-4.961-8.597l-4.765,2.853c-1.948-1.846-4.296-3.241-6.777-4.031V3.5h-9.925v5.695
		c-2.48,0.784-5.18,2.179-7.129,4.025l-5.032-2.853l-5.005,8.597l4.917,2.848c-0.308,1.29-0.496,2.632-0.496,4.016
		c0,1.388,0.171,2.725,0.479,4.018l-4.941,2.85l4.961,8.597l5.115-2.855c1.948,1.846,4.651,3.248,7.132,4.031v5.689h9.925v-5.689
		c2.481-0.784,4.829-2.185,6.781-4.031l4.848,2.855l4.918-8.597l-4.957-2.85C115.772,28.557,115.927,27.215,115.927,25.828z"/>
</g>
</svg>
