<?xml version="1.0" encoding="utf-8"?>
<!-- Generator: Adobe Illustrator 16.0.0, SVG Export Plug-In . SVG Version: 6.00 Build 0)  -->
<!DOCTYPE svg PUBLIC "-//W3C//DTD SVG 1.1//EN" "http://www.w3.org/Graphics/SVG/1.1/DTD/svg11.dtd">
<svg version="1.1" id="Layer_1" xmlns="http://www.w3.org/2000/svg" xmlns:xlink="http://www.w3.org/1999/xlink" x="0px" y="0px"
	 width="127.907px" height="120px" viewBox="0 0 127.907 120" enable-background="new 0 0 127.907 120" xml:space="preserve">
<g>
	<path fill="none" stroke="#3366FF" stroke-width="2" stroke-linecap="round" stroke-miterlimit="10" d="M108.183,108.25
		c0,5.528-4.523,10.052-10.053,10.052H29.776c-5.529,0-10.052-4.523-10.052-10.052v-96.5c0-5.529,4.523-10.052,10.052-10.052H98.13
		c5.529,0,10.053,4.523,10.053,10.052V108.25z"/>
	
		<rect x="31.786" y="17.781" fill="none" stroke="#3366FF" stroke-width="2" stroke-linecap="round" stroke-miterlimit="10" width="64.334" height="76.396"/>
	<g>
		<path fill="none" stroke="#3366FF" stroke-miterlimit="10" d="M63.953,7.729c-1.109,0-2.01,0.901-2.01,2.01
			c0,1.11,0.901,2.011,2.01,2.011s2.011-0.9,2.011-2.011C65.964,8.63,65.063,7.729,63.953,7.729L63.953,7.729z"/>
	</g>
	
		<circle fill="none" stroke="#3366FF" stroke-width="2" stroke-linecap="round" stroke-miterlimit="10" cx="63.953" cy="106.239" r="4.021"/>
	
		<rect x="43.849" y="29.844" fill="none" stroke="#3366FF" stroke-width="2" stroke-linecap="round" stroke-miterlimit="10" width="8.042" height="8.042"/>
	
		<rect x="59.932" y="29.844" fill="none" stroke="#3366FF" stroke-width="2" stroke-linecap="round" stroke-miterlimit="10" width="8.042" height="8.042"/>
	
		<rect x="76.016" y="29.844" fill="none" stroke="#3366FF" stroke-width="2" stroke-linecap="round" stroke-miterlimit="10" width="8.042" height="8.042"/>
	
		<rect x="43.849" y="45.927" fill="none" stroke="#3366FF" stroke-width="2" stroke-linecap="round" stroke-miterlimit="10" width="8.042" height="8.042"/>
	
		<rect x="59.932" y="45.927" fill="none" stroke="#3366FF" stroke-width="2" stroke-linecap="round" stroke-miterlimit="10" width="8.042" height="8.042"/>
	
		<rect x="76.016" y="45.927" fill="none" stroke="#3366FF" stroke-width="2" stroke-linecap="round" stroke-miterlimit="10" width="8.042" height="8.042"/>
	
		<rect x="43.849" y="62.011" fill="none" stroke="#3366FF" stroke-width="2" stroke-linecap="round" stroke-miterlimit="10" width="8.042" height="8.041"/>
	
		<rect x="59.932" y="62.011" fill="none" stroke="#3366FF" stroke-width="2" stroke-linecap="round" stroke-miterlimit="10" width="8.042" height="8.041"/>
</g>
</svg>
